# xmcd CD database file
#
# Track frame offsets:
#	150
#	9833
#	19563
#	32804
#	41680
#	47362
#	51955
#	60202
#	70827
#	77717
#	89445
#	97296
#	107053
#	120350
#	126342
#
# Disc length: 1804 seconds
#
# Revision: 2
# Processed by: cddbd v1.5.2PL0 Copyright (c) Steve Scherf et al.
# Submitted via: CDex 1.70beta2
#
DISCID=b8070a0f
DTITLE=Pete Seeger - Folk Songs, Ballads and Banjo  CD3
DYEAR=2006
DGENRE=Folk,Singer/Songwriter
TTITLE0=Union Maid
TTITLE1=Fare You Well Polly
TTITLE2=Talking Union
TTITLE3=Mexican Blues
TTITLE4=When I Was Single
TTITLE5=Jesu Joy Of Mans Desiring
TTITLE6=Polly Wolly Doodle
TTITLE7=Time's A-Getting Hard
TTITLE8=Danville Girl
TTITLE9=Four Banjo Pieces
TTITLE10=Oh Liza Poor Gal
TTITLE11=Black Eyed Suzy
TTITLE12=Joey Bowers
TTITLE13=Cumberland Gap
TTITLE14=Blow The Man Down
EXTD=YEAR: 2006
EXTT0=
EXTT1=
EXTT2=
EXTT3=
EXTT4=
EXTT5=
EXTT6=
EXTT7=
EXTT8=
EXTT9=
EXTT10=
EXTT11=
EXTT12=
EXTT13=
EXTT14=
PLAYORDER=
